<svg xmlns="http://www.w3.org/2000/svg" viewBox="0 0 64 64" role="img" aria-label="Escudo LS">
  <defs>
    <linearGradient id="lsGradient" x1="0%" y1="0%" x2="100%" y2="100%">
      <stop offset="0%" stop-color="#33b1ff"/>
      <stop offset="100%" stop-color="#0f4f80"/>
    </linearGradient>
  </defs>
  <rect width="64" height="64" rx="14" fill="#071a2f"/>
  <path d="M32 9 49 16v14c0 11.3-6.9 20.9-17 24.5C21.9 50.9 15 41.3 15 30V16z" fill="url(#lsGradient)"/>
  <path d="M24 22v18h13v-4h-8V22z" fill="#fff"/>
  <path d="M41 22h-8v4h6v4h-4c-1.7 0-3 1.3-3 3v4c0 1.7 1.3 3 3 3h8v-4h-6v-4h4c1.7 0 3-1.3 3-3v-4c0-1.7-1.3-3-3-3z" fill="#fff"/>
</svg>
